<svg width="24" height="24" viewBox="0 0 24 24" fill="none" xmlns="http://www.w3.org/2000/svg">
<path fill-rule="evenodd" clip-rule="evenodd" d="M5.57434 4.69147C4.74117 5.38295 4.52171 6.55339 4.0828 8.89427L3.3328 12.8943C2.7156 16.186 2.40701 17.8318 3.30672 18.9159C4.20644 20 5.88097 20 9.23003 20H14.7709C18.12 20 19.7945 20 20.6942 18.9159C21.5939 17.8318 21.2853 16.186 20.6681 12.8943L19.9181 8.89427C19.4792 6.55339 19.2598 5.38295 18.4266 4.69147C17.5934 4 16.4026 4 14.0209 4H9.98003C7.59835 4 6.40752 4 5.57434 4.69147ZM9.87871 7.75007C10.1879 8.62497 11.0224 9.25 12.0009 9.25C12.9794 9.25 13.8138 8.62497 14.123 7.75007C14.2611 7.35953 14.6896 7.15483 15.0801 7.29287C15.4706 7.43091 15.6753 7.8594 15.5373 8.24993C15.0229 9.70541 13.6348 10.75 12.0009 10.75C10.3669 10.75 8.97888 9.70541 8.46445 8.24993C8.32641 7.8594 8.5311 7.43091 8.92164 7.29287C9.31218 7.15483 9.74067 7.35953 9.87871 7.75007Z" fill="black"/>
</svg>
