<svg width="24" height="24" viewBox="0 0 24 24" fill="none" xmlns="http://www.w3.org/2000/svg">
<path d="M8.50226 5.38707C8.81015 5.10997 8.8351 4.63576 8.55801 4.32787C8.28092 4.01999 7.8067 3.99503 7.49882 4.27213L5.76133 5.83587C5.02499 6.49853 4.41418 7.04822 3.99477 7.54679C3.55374 8.07104 3.24023 8.6343 3.24023 9.3296C3.24023 10.0249 3.55374 10.5882 3.99477 11.1124C4.41418 11.611 5.02498 12.1607 5.76132 12.8233L7.49882 14.3871C7.8067 14.6642 8.28092 14.6392 8.55801 14.3313C8.8351 14.0234 8.81015 13.5492 8.50226 13.2721L6.80579 11.7453C6.01792 11.0362 5.48672 10.5558 5.14262 10.1468C4.81237 9.7542 4.74023 9.52502 4.74023 9.3296C4.74023 9.13417 4.81237 8.90499 5.14262 8.51241C5.48672 8.10338 6.01792 7.62298 6.80579 6.91389L8.50226 5.38707Z" fill="black"/>
<path d="M14.18 4.27517C14.5803 4.38157 14.8185 4.79234 14.7121 5.19266L10.7253 20.1927C10.6189 20.593 10.2082 20.8312 9.80784 20.7248C9.40752 20.6184 9.16926 20.2077 9.27565 19.8074L13.2625 4.80735C13.3689 4.40704 13.7796 4.16877 14.18 4.27517Z" fill="black"/>
<path d="M15.443 10.4983C15.7201 10.1904 16.1943 10.1654 16.5022 10.4425L18.2397 12.0063C18.976 12.6689 19.5868 13.2186 20.0063 13.7172C20.4473 14.2415 20.7608 14.8047 20.7608 15.5C20.7608 16.1953 20.4473 16.7586 20.0063 17.2828C19.5868 17.7814 18.976 18.3311 18.2397 18.9937L16.5022 20.5575C16.1943 20.8346 15.7201 20.8096 15.443 20.5017C15.1659 20.1938 15.1909 19.7196 15.4988 19.4425L17.1952 17.9157C17.9831 17.2066 18.5143 16.7262 18.8584 16.3172C19.1887 15.9246 19.2608 15.6954 19.2608 15.5C19.2608 15.3046 19.1887 15.0754 18.8584 14.6828C18.5143 14.2738 17.9831 13.7934 17.1952 13.0843L15.4988 11.5575C15.1909 11.2804 15.1659 10.8062 15.443 10.4983Z" fill="black"/>
</svg>
