<svg width="24" height="24" viewBox="0 0 24 24" fill="none" xmlns="http://www.w3.org/2000/svg">
<path d="M3.21098 3.04233C2.74715 3.58092 2.58714 4.26887 2.60711 5.25H21.3942C21.4141 4.26887 21.2541 3.58092 20.7903 3.04233C19.8927 2 18.2729 2 15.0335 2H8.96776C5.72833 2 4.10862 2 3.21098 3.04233Z" fill="black"/>
<path d="M3.03414 8.89001C2.91261 8.07985 2.80646 7.37214 2.73018 6.75H3.68983L4.93983 8L3.16662 9.77321L3.03414 8.89001Z" fill="black"/>
<path d="M3.5996 12.6598L3.94923 14.9906L4.93983 14L3.5996 12.6598Z" fill="black"/>
<path d="M4.22592 16.8352L4.23414 16.89C4.30961 17.3932 4.37729 17.8443 4.4446 18.25H6.68983L7.93983 17L6.00049 15.0607L4.22592 16.8352Z" fill="black"/>
<path d="M11.3111 18.25H12.6898L13.9398 17L12.0005 15.0607L10.0611 17L11.3111 18.25Z" fill="black"/>
<path d="M17.3111 18.25H19.5567C19.624 17.8443 19.6917 17.3932 19.7671 16.89L19.7753 16.8355L18.0005 15.0607L16.0611 17L17.3111 18.25Z" fill="black"/>
<path d="M20.052 14.9909L20.4017 12.6594L19.0611 14L20.052 14.9909Z" fill="black"/>
<path d="M20.8346 9.77347L20.9672 8.88963C21.0886 8.07989 21.1948 7.37188 21.2711 6.75H20.3111L19.0611 8L20.8346 9.77347Z" fill="black"/>
<path d="M15.6898 6.75H14.3111L13.0611 8L15.0005 9.93934L16.9398 8L15.6898 6.75Z" fill="black"/>
<path d="M9.68983 6.75H8.31115L7.06115 8L9.00049 9.93934L10.9398 8L9.68983 6.75Z" fill="black"/>
<path d="M4.75857 19.75C4.95448 20.4359 5.20997 20.9145 5.62653 21.2732C6.47045 22 7.70289 22 10.1678 22H13.8335C16.2984 22 17.5308 22 18.3747 21.2732C18.7913 20.9145 19.0468 20.4359 19.2427 19.75H4.75857Z" fill="black"/>
<path d="M4.06115 11L6.00049 9.06066L7.93983 11L6.00049 12.9393L4.06115 11Z" fill="black"/>
<path d="M7.06115 14L9.00049 12.0607L10.9398 14L9.00049 15.9393L7.06115 14Z" fill="black"/>
<path d="M15.0005 15.9393L13.0611 14L15.0005 12.0607L16.9398 14L15.0005 15.9393Z" fill="black"/>
<path d="M12.0005 12.9393L13.9398 11L12.0005 9.06066L10.0611 11L12.0005 12.9393Z" fill="black"/>
<path d="M18.0005 12.9393L16.0611 11L18.0005 9.06066L19.9398 11L18.0005 12.9393Z" fill="black"/>
</svg>
